<svg width="22" height="21" viewBox="0 0 22 21" fill="none" xmlns="http://www.w3.org/2000/svg">
<path d="M3.095 18.055L6.143 17.038L6.692 17.305C7.9625 17.9215 9.4145 18.25 11 18.25C16.244 18.25 20 14.503 20 10C20 5.4805 16.271 1.75 11 1.75C5.729 1.75 2 5.4805 2 10C2.00886 11.7295 2.57835 13.4096 3.623 14.788L4.13 15.463L3.095 18.0535V18.055ZM2.0345 19.99C1.89876 20.0355 1.75284 20.0412 1.61397 20.0064C1.47511 19.9716 1.3491 19.8978 1.25084 19.7937C1.15257 19.6896 1.08615 19.5595 1.05942 19.4189C1.03269 19.2782 1.04677 19.1329 1.1 19L2.4245 15.6895C1.18427 14.0512 0.508973 12.0548 0.5 10C0.5 5.029 4.523 0.25 11 0.25C17.477 0.25 21.5 5.029 21.5 10C21.5 14.971 17.435 19.75 11 19.75C9.1325 19.75 7.4645 19.348 6.038 18.655L2.033 19.99H2.0345Z" fill="#989898"/>
</svg>
