<svg width="23" height="27" viewBox="0 0 23 27" fill="none" xmlns="http://www.w3.org/2000/svg">
<path d="M6.5869 27C1.05502 23.8823 -0.401401 20.9313 0.431279 16.9008C1.046 13.9247 3.05887 11.5034 3.25188 8.53301C4.11172 10.0978 4.471 11.2261 4.56707 12.8612C7.30179 9.51064 9.10894 4.87229 9.21595 0C9.21595 0 16.3389 4.18523 16.8063 10.5071C17.4195 9.20401 17.7282 7.13448 17.115 5.79321C18.9545 7.13455 29.7216 19.0421 15.6566 27C18.3009 21.8511 16.3388 14.9038 11.7474 11.6951C12.0541 13.0748 11.5165 18.2206 9.48523 20.4817C10.048 16.7036 8.94973 15.106 8.94973 15.106C8.94973 15.106 8.57277 17.2222 7.11018 19.36C5.77458 21.3121 4.84915 23.384 6.5869 27Z" fill="#C15959"/>
</svg>
