<svg width="36" height="36" viewBox="0 0 36 36" fill="none" xmlns="http://www.w3.org/2000/svg">
<g clip-path="url(#clip0_1_198)">
<path d="M18 6.30997C18.2652 6.30997 18.5196 6.20462 18.7071 6.01708C18.8946 5.82954 19 5.57519 19 5.30997V1.90997C19 1.64476 18.8946 1.3904 18.7071 1.20287C18.5196 1.01533 18.2652 0.909973 18 0.909973C17.7348 0.909973 17.4804 1.01533 17.2929 1.20287C17.1054 1.3904 17 1.64476 17 1.90997V5.30997C17 5.57519 17.1054 5.82954 17.2929 6.01708C17.4804 6.20462 17.7348 6.30997 18 6.30997Z" fill="white"/>
<path d="M18 29.69C17.7348 29.69 17.4804 29.7954 17.2929 29.9829C17.1054 30.1704 17 30.4248 17 30.69V34.09C17 34.3552 17.1054 34.6096 17.2929 34.7971C17.4804 34.9846 17.7348 35.09 18 35.09C18.2652 35.09 18.5196 34.9846 18.7071 34.7971C18.8946 34.6096 19 34.3552 19 34.09V30.69C19 30.4248 18.8946 30.1704 18.7071 29.9829C18.5196 29.7954 18.2652 29.69 18 29.69Z" fill="white"/>
<path d="M8.32001 9.74002C8.50595 9.90905 8.74872 10.0019 9.00001 10C9.13161 10.0008 9.26208 9.97556 9.38391 9.92579C9.50575 9.87603 9.61657 9.8027 9.71001 9.71002C9.80374 9.61706 9.87813 9.50646 9.9289 9.3846C9.97967 9.26274 10.0058 9.13203 10.0058 9.00002C10.0058 8.86801 9.97967 8.7373 9.9289 8.61545C9.87813 8.49359 9.80374 8.38299 9.71001 8.29002L7.33001 5.92002C7.13871 5.7562 6.89263 5.67059 6.64095 5.68031C6.38928 5.69003 6.15054 5.79436 5.97244 5.97246C5.79435 6.15055 5.69002 6.38929 5.6803 6.64097C5.67057 6.89265 5.75618 7.13872 5.92001 7.33002L8.32001 9.74002Z" fill="white"/>
<path d="M27.68 26.26C27.5868 26.1667 27.4761 26.0928 27.3543 26.0423C27.2324 25.9919 27.1019 25.9659 26.97 25.9659C26.8381 25.9659 26.7076 25.9919 26.5858 26.0423C26.4639 26.0928 26.3532 26.1667 26.26 26.26C26.1668 26.3532 26.0928 26.4639 26.0423 26.5857C25.9919 26.7075 25.9659 26.8381 25.9659 26.97C25.9659 27.1018 25.9919 27.2324 26.0423 27.3542C26.0928 27.476 26.1668 27.5867 26.26 27.68L28.67 30.08C28.7626 30.1745 28.8731 30.2496 28.9949 30.3011C29.1168 30.3526 29.2477 30.3794 29.38 30.38C29.6438 30.3762 29.8954 30.2684 30.08 30.08C30.2663 29.8926 30.3708 29.6392 30.3708 29.375C30.3708 29.1108 30.2663 28.8573 30.08 28.67L27.68 26.26Z" fill="white"/>
<path d="M6.31 18C6.31 17.7348 6.20465 17.4804 6.01711 17.2929C5.82957 17.1054 5.57522 17 5.31 17H1.91C1.64479 17 1.39043 17.1054 1.2029 17.2929C1.01536 17.4804 0.910004 17.7348 0.910004 18C0.910004 18.2652 1.01536 18.5196 1.2029 18.7071C1.39043 18.8946 1.64479 19 1.91 19H5.31C5.57522 19 5.82957 18.8946 6.01711 18.7071C6.20465 18.5196 6.31 18.2652 6.31 18Z" fill="white"/>
<path d="M34.09 17H30.69C30.4248 17 30.1704 17.1054 29.9829 17.2929C29.7954 17.4804 29.69 17.7348 29.69 18C29.69 18.2652 29.7954 18.5196 29.9829 18.7071C30.1704 18.8946 30.4248 19 30.69 19H34.09C34.3552 19 34.6096 18.8946 34.7971 18.7071C34.9846 18.5196 35.09 18.2652 35.09 18C35.09 17.7348 34.9846 17.4804 34.7971 17.2929C34.6096 17.1054 34.3552 17 34.09 17Z" fill="white"/>
<path d="M8.32 26.26L5.92 28.67C5.77958 28.8092 5.68361 28.987 5.64422 29.1808C5.60484 29.3747 5.62381 29.5758 5.69873 29.7588C5.77366 29.9419 5.90117 30.0986 6.06516 30.2091C6.22914 30.3197 6.42223 30.3791 6.62 30.38C6.75231 30.3794 6.88319 30.3526 7.00506 30.3011C7.12694 30.2496 7.23738 30.1745 7.33 30.08L9.74 27.68C9.9283 27.4917 10.0341 27.2363 10.0341 26.97C10.0341 26.7037 9.9283 26.4483 9.74 26.26C9.5517 26.0717 9.2963 25.9659 9.03 25.9659C8.7637 25.9659 8.5083 26.0717 8.32 26.26Z" fill="white"/>
<path d="M27 9.99997C27.1316 10.0007 27.2621 9.97551 27.3839 9.92575C27.5057 9.87598 27.6166 9.80266 27.71 9.70997L30.11 7.29997C30.2963 7.11261 30.4008 6.85916 30.4008 6.59497C30.4008 6.33079 30.2963 6.07734 30.11 5.88997C29.9226 5.70372 29.6692 5.59918 29.405 5.59918C29.1408 5.59918 28.8874 5.70372 28.7 5.88997L26.29 8.28997C26.1963 8.38294 26.1219 8.49354 26.0711 8.6154C26.0203 8.73726 25.9942 8.86796 25.9942 8.99997C25.9942 9.13199 26.0203 9.26269 26.0711 9.38455C26.1219 9.50641 26.1963 9.61701 26.29 9.70997C26.3834 9.80266 26.4943 9.87598 26.6161 9.92575C26.7379 9.97551 26.8684 10.0007 27 9.99997Z" fill="white"/>
<path d="M18.13 7.74998C16.1211 7.7242 14.15 8.29633 12.4671 9.39364C10.7842 10.4909 9.46562 12.0639 8.67893 13.9125C7.89224 15.7611 7.67299 17.8018 8.04906 19.7753C8.42512 21.7489 9.37951 23.566 10.7909 24.9957C12.2023 26.4255 14.0069 27.4032 15.9754 27.8048C17.9439 28.2063 19.9874 28.0134 21.846 27.2507C23.7046 26.4879 25.2944 25.1898 26.4133 23.5212C27.5323 21.8526 28.1298 19.889 28.13 17.88C28.1433 15.2118 27.0982 12.6471 25.2236 10.7482C23.3491 8.84931 20.7982 7.77112 18.13 7.74998ZM18.13 26C16.5163 26.0258 14.9315 25.5707 13.5773 24.6928C12.2231 23.8148 11.1609 22.5537 10.5258 21.07C9.8908 19.5863 9.71172 17.9472 10.0114 16.3614C10.3111 14.7756 11.0759 13.3148 12.2086 12.1652C13.3413 11.0155 14.7904 10.229 16.3716 9.90577C17.9528 9.58252 19.5944 9.73718 21.0874 10.3501C22.5804 10.9629 23.8572 12.0063 24.7552 13.3472C25.6532 14.6882 26.1318 16.2661 26.13 17.88C26.1407 20.0161 25.3051 22.0695 23.8059 23.5911C22.3067 25.1128 20.266 25.9789 18.13 26Z" fill="white"/>
</g>
<defs>
<clipPath id="clip0_1_198">
<rect width="36" height="36" fill="white"/>
</clipPath>
</defs>
</svg>
